REM DIRINDEX 1\2,1\3\7,1\3\8,1\4\9,1\4\10,1\4\11,1\5\12,1\5\13,1\5\14,1\6\15,1\6\16,1\6\17
REM DIRNAME "folder01","folder02","folder03","folder04","folder05","folder06","folder07","folder08","folder09","folder10","folder11","folder12","folder13","folder14","folder15","folder16","folder17"
TITLE ""
FILE "2Q_t_0101-0117.mp3" MP3
  TRACK 01 AUDIO
    TITLE "2:cjc174_1934"
    INDEX 01 00:00:00
  TRACK 02 AUDIO
    TITLE "0:"
    INDEX 01 00:01:37
  TRACK 03 AUDIO
    TITLE "2:cjc174_1935"
    INDEX 01 00:02:07
  TRACK 04 AUDIO
    TITLE "0:"
    INDEX 01 00:03:15
  TRACK 05 AUDIO
    TITLE "7:cjc174_1936"
    INDEX 01 00:03:63
  TRACK 06 AUDIO
    TITLE "0:"
    INDEX 01 00:04:67
  TRACK 07 AUDIO
    TITLE "8:cjc174_1937"
    INDEX 01 00:05:41
  TRACK 08 AUDIO
    TITLE "0:"
    INDEX 01 00:08:37
  TRACK 09 AUDIO
    TITLE "7:cjc174_1938"
    INDEX 01 00:09:05
  TRACK 10 AUDIO
    TITLE "0:"
    INDEX 01 00:10:13
  TRACK 11 AUDIO
    TITLE "8:cjc174_1939"
    INDEX 01 00:10:64
  TRACK 12 AUDIO
    TITLE "0:"
    INDEX 01 00:12:12
  TRACK 13 AUDIO
    TITLE "7:cjc174_1940"
    INDEX 01 00:12:57
  TRACK 14 AUDIO
    TITLE "0:"
    INDEX 01 00:14:03
  TRACK 15 AUDIO
    TITLE "8:cjc174_1941"
    INDEX 01 00:14:48
  TRACK 16 AUDIO
    TITLE "0:"
    INDEX 01 00:18:16
  TRACK 17 AUDIO
    TITLE "7:cjc174_1942"
    INDEX 01 00:18:61
  TRACK 18 AUDIO
    TITLE "0:"
    INDEX 01 00:19:61
  TRACK 19 AUDIO
    TITLE "8:cjc174_1943"
    INDEX 01 00:20:33
  TRACK 20 AUDIO
    TITLE "0:"
    INDEX 01 00:21:59
  TRACK 21 AUDIO
    TITLE "7:cjc174_1944"
    INDEX 01 00:22:31
  TRACK 22 AUDIO
    TITLE "0:"
    INDEX 01 00:23:43
  TRACK 23 AUDIO
    TITLE "8:cjc174_1945"
    INDEX 01 00:24:11
  TRACK 24 AUDIO
    TITLE "0:"
    INDEX 01 00:27:19
  TRACK 25 AUDIO
    TITLE "7:cjc174_1946"
    INDEX 01 00:27:64
  TRACK 26 AUDIO
    TITLE "0:"
    INDEX 01 00:29:02
  TRACK 27 AUDIO
    TITLE "8:cjc174_1947"
    INDEX 01 00:29:49
  TRACK 28 AUDIO
    TITLE "0:"
    INDEX 01 00:33:08
  TRACK 29 AUDIO
    TITLE "7:cjc174_1948"
    INDEX 01 00:33:53
  TRACK 30 AUDIO
    TITLE "0:"
    INDEX 01 00:34:56
  TRACK 31 AUDIO
    TITLE "8:cjc174_1949"
    INDEX 01 00:35:40
  TRACK 32 AUDIO
    TITLE "0:"
    INDEX 01 00:38:17
  TRACK 33 AUDIO
    TITLE "7:cjc174_1950"
    INDEX 01 00:38:62
  TRACK 34 AUDIO
    TITLE "0:"
    INDEX 01 00:40:04
  TRACK 35 AUDIO
    TITLE "8:cjc174_1951"
    INDEX 01 00:40:53
  TRACK 36 AUDIO
    TITLE "0:"
    INDEX 01 00:43:08
  TRACK 37 AUDIO
    TITLE "7:cjc174_1952"
    INDEX 01 00:43:51
  TRACK 38 AUDIO
    TITLE "0:"
    INDEX 01 00:45:01
  TRACK 39 AUDIO
    TITLE "8:cjc174_1953"
    INDEX 01 00:45:48
  TRACK 40 AUDIO
    TITLE "0:"
    INDEX 01 00:48:58
  TRACK 41 AUDIO
    TITLE "7:cjc174_1954"
    INDEX 01 00:49:26
  TRACK 42 AUDIO
    TITLE "0:"
    INDEX 01 00:50:47
  TRACK 43 AUDIO
    TITLE "8:cjc174_1955"
    INDEX 01 00:51:19
  TRACK 44 AUDIO
    TITLE "0:"
    INDEX 01 00:54:18
  TRACK 45 AUDIO
    TITLE "7:cjc174_1956"
    INDEX 01 00:54:63
  TRACK 46 AUDIO
    TITLE "0:"
    INDEX 01 00:55:66
  TRACK 47 AUDIO
    TITLE "8:cjc174_1957"
    INDEX 01 00:56:42
  TRACK 48 AUDIO
    TITLE "0:"
    INDEX 01 00:58:59
  TRACK 49 AUDIO
    TITLE "7:cjc174_1958"
    INDEX 01 00:59:29
  TRACK 50 AUDIO
    TITLE "0:"
    INDEX 01 01:00:30
  TRACK 51 AUDIO
    TITLE "8:cjc174_1959"
    INDEX 01 01:01:02
  TRACK 52 AUDIO
    TITLE "0:"
    INDEX 01 01:03:70
  TRACK 53 AUDIO
    TITLE "7:cjc174_1960"
    INDEX 01 01:04:40
  TRACK 54 AUDIO
    TITLE "0:"
    INDEX 01 01:05:51
  TRACK 55 AUDIO
    TITLE "8:cjc174_1961"
    INDEX 01 01:06:23
  TRACK 56 AUDIO
    TITLE "0:"
    INDEX 01 01:10:52
  TRACK 57 AUDIO
    TITLE "7:cjc174_1962"
    INDEX 01 01:11:20
  TRACK 58 AUDIO
    TITLE "0:"
    INDEX 01 01:12:41
  TRACK 59 AUDIO
    TITLE "8:cjc174_1963"
    INDEX 01 01:13:15
  TRACK 60 AUDIO
    TITLE "0:"
    INDEX 01 01:14:26
  TRACK 61 AUDIO
    TITLE "7:cjc174_1964"
    INDEX 01 01:14:71
  TRACK 62 AUDIO
    TITLE "0:"
    INDEX 01 01:16:12
  TRACK 63 AUDIO
    TITLE "8:cjc174_1965"
    INDEX 01 01:16:60
  TRACK 64 AUDIO
    TITLE "0:"
    INDEX 01 01:20:25
  TRACK 65 AUDIO
    TITLE "7:cjc174_1966"
    INDEX 01 01:20:68
  TRACK 66 AUDIO
    TITLE "0:"
    INDEX 01 01:21:64
  TRACK 67 AUDIO
    TITLE "8:cjc174_1967"
    INDEX 01 01:22:38
  TRACK 68 AUDIO
    TITLE "0:"
    INDEX 01 01:23:49
  TRACK 69 AUDIO
    TITLE "7:cjc174_1968"
    INDEX 01 01:24:17
  TRACK 70 AUDIO
    TITLE "0:"
    INDEX 01 01:25:30
  TRACK 71 AUDIO
    TITLE "8:cjc174_1969"
    INDEX 01 01:26:04
  TRACK 72 AUDIO
    TITLE "0:"
    INDEX 01 01:27:52
